HIERARCHY
ROOT hip
{
  OFFSET 0 0 0
  CHANNELS 6 Xposition Yposition Zposition Zrotation Yrotation Xrotation
  JOINT abdomen
  {
    OFFSET 0 20.6881 -0.73152
    CHANNELS 3 Zrotation Xrotation Yrotation
    JOINT chest
    {
      OFFSET 0 11.7043 -0.48768
      CHANNELS 3 Zrotation Xrotation Yrotation
      JOINT neck
      {
        OFFSET 0 22.1894 -2.19456
        CHANNELS 3 Zrotation Xrotation Yrotation
        JOINT head
        {
          OFFSET -0.24384 7.07133 1.2192
          CHANNELS 3 Zrotation Xrotation Yrotation
          JOINT leftEye
          {
            OFFSET 4.14528 8.04674 8.04672
            CHANNELS 3 Zrotation Xrotation Yrotation
            End Site
            {
              OFFSET 1 0 0
            }
          }
          JOINT rightEye
          {
            OFFSET -3.6576 8.04674 8.04672
            CHANNELS 3 Zrotation Xrotation Yrotation
            End Site
            {
              OFFSET 1 0 0
            }
          }
        }
      }
      JOINT rCollar
      {
        OFFSET -2.68224 19.2634 -4.8768
        CHANNELS 3 Zrotation Xrotation Yrotation
        JOINT rShldr
        {
          OFFSET -8.77824 -1.95073 1.46304
          CHANNELS 3 Zrotation Xrotation Yrotation
          JOINT rForeArm
          {
            OFFSET -28.1742 -1.7115 0.48768
            CHANNELS 3 Zrotation Xrotation Yrotation
            JOINT rHand
            {
              OFFSET -22.5879 0.773209 7.07136
              CHANNELS 3 Zrotation Xrotation Yrotation
              JOINT rThumb1
              {
                OFFSET -1.2192 -0.487915 3.41376
                CHANNELS 3 Zrotation Xrotation Yrotation
                JOINT rThumb2
                {
                  OFFSET -3.37035 -0.52449 3.41376
                  CHANNELS 3 Zrotation Xrotation Yrotation
                  End Site
                  {
                    OFFSET -1.78271 -1.18214 1.43049
                  }
                }
              }
              JOINT rIndex1
              {
                OFFSET -7.75947 0.938293 5.60832
                CHANNELS 3 Zrotation Xrotation Yrotation
                JOINT rIndex2
                {
                  OFFSET -2.54057 -0.884171 1.56538
                  CHANNELS 3 Zrotation Xrotation Yrotation
                  End Site
                  {
                    OFFSET -1.62519 -0.234802 1.16502
                  }
                }
              }
              JOINT rMid1
              {
                OFFSET -8.24714 1.18213 3.41376
                CHANNELS 3 Zrotation Xrotation Yrotation
                JOINT rMid2
                {
                  OFFSET -3.10165 -0.590103 1.0647
                  CHANNELS 3 Zrotation Xrotation Yrotation
                  End Site
                  {
                    OFFSET -2.48547 -0.328903 0.83742
                  }
                }
              }
              JOINT rRing1
              {
                OFFSET -8.82822 0.546677 1.51678
                CHANNELS 3 Zrotation Xrotation Yrotation
                JOINT rRing2
                {
                  OFFSET -2.60934 -0.819778 -0.0198488
                  CHANNELS 3 Zrotation Xrotation Yrotation
                  End Site
                  {
                    OFFSET -2.33842 -0.294052 0.168128
                  }
                }
              }
              JOINT rPinky1
              {
                OFFSET -8.27202 -0.0477905 -0.4584
                CHANNELS 3 Zrotation Xrotation Yrotation
                JOINT rPinky2
                {
                  OFFSET -1.82734 -0.647385 -0.700984
                  CHANNELS 3 Zrotation Xrotation Yrotation
                  End Site
                  {
                    OFFSET -1.69225 -0.51767 -0.607171
                  }
                }
              }
            }
          }
        }
      }
      JOINT lCollar
      {
        OFFSET 2.68224 19.2634 -4.8768
        CHANNELS 3 Zrotation Xrotation Yrotation
        JOINT lShldr
        {
          OFFSET 8.77824 -1.95073 1.46304
          CHANNELS 3 Zrotation Xrotation Yrotation
          JOINT lForeArm
          {
            OFFSET 28.1742 -1.7115 0.48768
            CHANNELS 3 Zrotation Xrotation Yrotation
            JOINT lHand
            {
              OFFSET 22.5879 0.773209 7.07136
              CHANNELS 3 Zrotation Xrotation Yrotation
              JOINT lThumb1
              {
                OFFSET 1.2192 -0.487915 3.41376
                CHANNELS 3 Zrotation Xrotation Yrotation
                JOINT lThumb2
                {
                  OFFSET 3.37035 -0.52449 3.41376
                  CHANNELS 3 Zrotation Xrotation Yrotation
                  End Site
                  {
                    OFFSET 1.78271 -1.18214 1.43049
                  }
                }
              }
              JOINT lIndex1
              {
                OFFSET 7.75947 0.938293 5.60832
                CHANNELS 3 Zrotation Xrotation Yrotation
                JOINT lIndex2
                {
                  OFFSET 2.54057 -0.884171 1.56538
                  CHANNELS 3 Zrotation Xrotation Yrotation
                  End Site
                  {
                    OFFSET 1.62519 -0.234802 1.16502
                  }
                }
              }
              JOINT lMid1
              {
                OFFSET 8.24714 1.18213 3.41376
                CHANNELS 3 Zrotation Xrotation Yrotation
                JOINT lMid2
                {
                  OFFSET 3.10165 -0.590103 1.0647
                  CHANNELS 3 Zrotation Xrotation Yrotation
                  End Site
                  {
                    OFFSET 2.48547 -0.328903 0.83742
                  }
                }
              }
              JOINT lRing1
              {
                OFFSET 8.82822 0.546677 1.51678
                CHANNELS 3 Zrotation Xrotation Yrotation
                JOINT lRing2
                {
                  OFFSET 2.60934 -0.819778 -0.0198488
                  CHANNELS 3 Zrotation Xrotation Yrotation
                  End Site
                  {
                    OFFSET 2.33842 -0.294052 0.168128
                  }
                }
              }
              JOINT lPinky1
              {
                OFFSET 8.27202 -0.0477905 -0.4584
                CHANNELS 3 Zrotation Xrotation Yrotation
                JOINT lPinky2
                {
                  OFFSET 1.82734 -0.647385 -0.700984
                  CHANNELS 3 Zrotation Xrotation Yrotation
                  End Site
                  {
                    OFFSET 1.69225 -0.51767 -0.607171
                  }
                }
              }
            }
          }
        }
      }
    }
  }
  JOINT rButtock
  {
    OFFSET -8.77824 4.35084 1.2192
    CHANNELS 3 Zrotation Xrotation Yrotation
    JOINT rThigh
    {
      OFFSET 0 -1.70687 -2.19456
      CHANNELS 3 Zrotation Xrotation Yrotation
      JOINT rShin
      {
        OFFSET 0 -36.8199 0.73152
        CHANNELS 3 Zrotation Xrotation Yrotation
        JOINT rFoot
        {
          OFFSET 0.73152 -45.1104 -5.12064
          CHANNELS 3 Zrotation Xrotation Yrotation
          End Site
          {
            OFFSET -1.1221 -3.69964 12.103
          }
        }
      }
    }
  }
  JOINT lButtock
  {
    OFFSET 8.77824 4.35084 1.2192
    CHANNELS 3 Zrotation Xrotation Yrotation
    JOINT lThigh
    {
      OFFSET 0 -1.70687 -2.19456
      CHANNELS 3 Zrotation Xrotation Yrotation
      JOINT lShin
      {
        OFFSET 0 -36.8199 0.73152
        CHANNELS 3 Zrotation Xrotation Yrotation
        JOINT lFoot
        {
          OFFSET -0.73152 -45.1104 -5.12064
          CHANNELS 3 Zrotation Xrotation Yrotation
          End Site
          {
            OFFSET 1.1221 -3.69964 12.103
          }
        }
      }
    }
  }
}
MOTION
Frames:	4
Frame Time:	0.00833333
101.116 77.7289 -3.46691 -174.268 35.2889 -162.061 5.13441 21.568 -4.54499 2.54893 -1.14638 -0.61182 -2.24825 5.02207 0.807306 8.04234 -43.1937 6.99107 -0.0 0.0 0.0 -0.0 0.0 0.0 5.96967e-13 -5.55998e-13 -1.2924e-12 -11.2604 17.0879 -5.21102 -12.1999 -5.5898 21.9975 -2.25662 -38.5904 -6.43953 -2.93452e-09 -3.25018e-09 -1.01232e-08 -4.78982e-09 -5.49582e-09 -1.75457e-08 -2.93451e-09 -3.25018e-09 -1.01232e-08 7.73091 5.47488 0.417314 -2.93452e-09 -3.25018e-09 -1.01232e-08 2.90554 0.965183 0.102902 -2.93451e-09 -3.25018e-09 -1.01232e-08 10.2786 0.731801 0.0259123 -2.93452e-09 -3.25018e-09 -1.01232e-08 2.22167 -0.733487 -0.20892 5.96889e-13 -5.56003e-13 -1.29268e-12 -7.03539 1.01104 4.10834 11.6753 -5.22336 -20.9834 0.117009 9.71074 -1.3781 7.24356e-09 -4.85875e-09 -7.74016e-09 1.24511e-08 -8.71804e-09 -1.34368e-08 7.24356e-09 -4.85875e-09 -7.74015e-09 -7.73091 5.47488 -0.417314 7.24356e-09 -4.85878e-09 -7.74017e-09 -2.90554 0.965183 -0.102902 7.24356e-09 -4.85875e-09 -7.74016e-09 -10.2786 0.731801 -0.0259123 7.24357e-09 -4.85875e-09 -7.74017e-09 -2.22167 -0.733487 0.20892 -2.03217e-16 0.0 -3.88251e-19 -5.83276 -56.6268 -2.47758 -0.253505 35.8137 0.482547 -4.90263 -8.42921 -19.7367 2.03217e-16 0.0 3.88251e-19 0.623893 -44.0806 12.7244 0.677342 52.7443 -1.23783 5.98772 -18.3095 12.802
101.595 77.6557 -4.14792 -174.774 34.367 -162.593 5.33079 21.5169 -4.64555 2.58114 -1.06858 -0.618603 -2.09162 4.90986 0.79566 7.82225 -42.8521 6.8032 -0.0 0.0 0.0 -0.0 0.0 0.0 3.97495e-13 -6.19361e-13 -1.14346e-12 -11.4623 16.6323 -5.11656 -12.1939 -5.58555 21.9859 -2.24239 -38.492 -6.41674 -3.3202e-09 -2.80506e-09 -7.73744e-09 -5.52135e-09 -4.777e-09 -1.34399e-08 -3.32019e-09 -2.80506e-09 -7.73745e-09 7.73091 5.47488 0.417314 -3.3202e-09 -2.80506e-09 -7.73744e-09 2.90554 0.965183 0.102902 -3.32019e-09 -2.80506e-09 -7.73744e-09 10.2786 0.731801 0.0259123 -3.3202e-09 -2.80506e-09 -7.73744e-09 2.22167 -0.733487 -0.20892 3.97456e-13 -6.19366e-13 -1.14372e-12 -7.04455 0.68072 4.02656 11.6343 -5.19547 -20.9045 0.124765 10.0232 -1.42335 5.29782e-09 -7.06908e-09 -7.21089e-09 9.09175e-09 -1.24774e-08 -1.25069e-08 5.29781e-09 -7.06908e-09 -7.21089e-09 -7.73091 5.47488 -0.417314 5.29781e-09 -7.06912e-09 -7.2109e-09 -2.90554 0.965183 -0.102902 5.29781e-09 -7.06909e-09 -7.21089e-09 -10.2786 0.731801 -0.0259123 5.29782e-09 -7.06908e-09 -7.2109e-09 -2.22167 -0.733487 0.20892 -2.03217e-16 0.0 -3.88251e-19 -6.07101 -56.5224 -2.25547 -0.254793 35.8085 0.473941 -4.91014 -7.92928 -20.4606 2.03217e-16 0.0 3.88251e-19 0.373955 -43.55 12.7118 0.689123 53.0088 -1.24176 5.64988 -18.7055 11.8701
102.069 77.5302 -4.82603 -175.265 33.3161 -162.945 5.4895 21.4635 -4.72276 2.59722 -0.998449 -0.622078 -1.9935 4.84586 0.770554 7.76073 -42.6133 6.67928 -0.0 0.0 0.0 -0.0 0.0 0.0 2.51252e-13 -6.01125e-13 -9.63609e-13 -11.6486 16.3954 -4.98201 -12.1909 -5.58343 21.9801 -2.23335 -38.4291 -6.40221 -3.15013e-09 -2.25037e-09 -5.67082e-09 -5.28461e-09 -3.85465e-09 -9.86928e-09 -3.15012e-09 -2.25036e-09 -5.67083e-09 7.73091 5.47488 0.417314 -3.15013e-09 -2.25037e-09 -5.67083e-09 2.90554 0.965183 0.102902 -3.15012e-09 -2.25037e-09 -5.67083e-09 10.2786 0.731801 0.0259123 -3.15013e-09 -2.25037e-09 -5.67082e-09 2.22167 -0.733487 -0.20892 2.51242e-13 -6.01125e-13 -9.63857e-13 -7.0237 0.413414 4.0287 11.61 -5.17891 -20.8577 0.132339 10.3165 -1.46592 3.81081e-09 -7.40284e-09 -6.20501e-09 6.53011e-09 -1.2997e-08 -1.0757e-08 3.8108e-09 -7.40284e-09 -6.20501e-09 -7.73091 5.47488 -0.417314 3.81079e-09 -7.40288e-09 -6.20503e-09 -2.90554 0.965183 -0.102902 3.8108e-09 -7.40284e-09 -6.20502e-09 -10.2786 0.731801 -0.0259123 3.81082e-09 -7.40284e-09 -6.20502e-09 -2.22167 -0.733487 0.20892 -2.03217e-16 0.0 -3.88251e-19 -6.25363 -56.4007 -1.94829 -0.261143 36.0608 0.470525 -4.7736 -7.45238 -20.5848 2.03217e-16 0.0 3.88251e-19 0.299959 -43.0735 12.9992 0.708188 53.4383 -1.25291 5.32867 -18.908 11.0582
102.609 77.3451 -5.4458 -175.51 32.3874 -163.084 5.56965 21.3908 -4.77312 2.58787 -0.928726 -0.624692 -1.98156 4.84505 0.720724 7.93017 -42.5039 6.63258 -0.0 0.0 0.0 -0.0 0.0 0.0 1.78715e-13 -4.53001e-13 -7.18295e-13 -11.8061 16.4526 -4.79218 -12.1865 -5.58028 21.9716 -2.22366 -38.3595 -6.38637 -2.06478e-09 -1.45632e-09 -3.94555e-09 -3.45784e-09 -2.49748e-09 -6.86228e-09 -2.06478e-09 -1.45631e-09 -3.94556e-09 7.73091 5.47488 0.417314 -2.06478e-09 -1.45632e-09 -3.94556e-09 2.90554 0.965183 0.102902 -2.06477e-09 -1.45632e-09 -3.94555e-09 10.2786 0.731801 0.0259123 -2.06478e-09 -1.45632e-09 -3.94555e-09 2.22167 -0.733487 -0.20892 1.78724e-13 -4.52985e-13 -7.18517e-13 -6.96268 0.235498 4.14438 11.6107 -5.17933 -20.859 0.13943 10.5831 -1.5047 2.83096e-09 -4.81114e-09 -4.28867e-09 4.85406e-09 -8.45785e-09 -7.43687e-09 2.83095e-09 -4.81114e-09 -4.28866e-09 -7.73091 5.47488 -0.417314 2.83095e-09 -4.81118e-09 -4.28868e-09 -2.90554 0.965183 -0.102902 2.83095e-09 -4.81115e-09 -4.28867e-09 -10.2786 0.731801 -0.0259123 2.83097e-09 -4.81114e-09 -4.28868e-09 -2.22167 -0.733487 0.20892 -2.03217e-16 0.0 -3.88251e-19 -6.38975 -56.2497 -1.55287 -0.273583 36.6218 0.473377 -4.45106 -7.04423 -19.7779 2.03217e-16 0.0 3.88251e-19 0.364714 -42.6022 13.6391 0.731081 53.9905 -1.27161 5.12265 -18.9457 10.5501
